<svg width="9" height="9" viewBox="0 0 9 9" fill="none" xmlns="http://www.w3.org/2000/svg">
<path d="M4.35 5.05L0.85 8.55C0.75 8.65 0.633333 8.7 0.5 8.7C0.366667 8.7 0.25 8.65 0.15 8.55C0.0499999 8.45 0 8.33333 0 8.2C0 8.06667 0.0499999 7.95 0.15 7.85L3.65 4.35L0.15 0.85C0.0499999 0.75 0 0.633333 0 0.5C0 0.366667 0.0499999 0.25 0.15 0.15C0.25 0.0499999 0.366667 0 0.5 0C0.633333 0 0.75 0.0499999 0.85 0.15L4.35 3.65L7.85 0.15C7.95 0.0499999 8.06667 0 8.2 0C8.33333 0 8.45 0.0499999 8.55 0.15C8.65 0.25 8.7 0.366667 8.7 0.5C8.7 0.633333 8.65 0.75 8.55 0.85L5.05 4.35L8.55 7.85C8.65 7.95 8.7 8.06667 8.7 8.2C8.7 8.33333 8.65 8.45 8.55 8.55C8.45 8.65 8.33333 8.7 8.2 8.7C8.06667 8.7 7.95 8.65 7.85 8.55L4.35 5.05Z" fill="#DC0A2D"/>
</svg>
