<svg width="12" height="11" viewBox="0 0 12 11" fill="none" xmlns="http://www.w3.org/2000/svg">
<path d="M2.31975 10.6667C2.1642 10.6667 2.03642 10.6056 1.93642 10.4833C1.83642 10.3611 1.80864 10.2222 1.85309 10.0667L2.41975 7.83333H0.503086C0.347531 7.83333 0.216975 7.76944 0.11142 7.64167C0.00586422 7.51389 -0.0246914 7.37222 0.0197531 7.21667C0.0419753 7.10556 0.0975308 7.01389 0.18642 6.94167C0.275309 6.86944 0.380864 6.83333 0.503086 6.83333H2.66975L3.41975 3.83333H1.16975C1.0142 3.83333 0.883642 3.76944 0.778087 3.64167C0.672531 3.51389 0.641975 3.37222 0.68642 3.21667C0.708642 3.10556 0.764197 3.01389 0.853086 2.94167C0.941975 2.86944 1.04753 2.83333 1.16975 2.83333H3.66975L4.28642 0.366667C4.30864 0.255556 4.36142 0.166667 4.44475 0.1C4.52809 0.0333334 4.62531 0 4.73642 0C4.89198 0 5.01698 0.0611112 5.11142 0.183333C5.20586 0.305556 5.23642 0.444445 5.20309 0.6L4.65309 2.83333H7.66975L8.28642 0.366667C8.30864 0.255556 8.36142 0.166667 8.44475 0.1C8.52809 0.0333334 8.62531 0 8.73642 0C8.89197 0 9.01697 0.0611112 9.11142 0.183333C9.20586 0.305556 9.23642 0.444445 9.20309 0.6L8.65309 2.83333H10.5698C10.7253 2.83333 10.8559 2.89722 10.9614 3.025C11.067 3.15278 11.0975 3.29444 11.0531 3.45C11.0309 3.56111 10.9753 3.65278 10.8864 3.725C10.7975 3.79722 10.692 3.83333 10.5698 3.83333H8.40309L7.65309 6.83333H9.90309C10.0586 6.83333 10.1892 6.89722 10.2948 7.025C10.4003 7.15278 10.4309 7.29444 10.3864 7.45C10.3642 7.56111 10.3086 7.65278 10.2198 7.725C10.1309 7.79722 10.0253 7.83333 9.90309 7.83333H7.40309L6.78642 10.3C6.7642 10.3889 6.71697 10.4722 6.64475 10.55C6.57253 10.6278 6.4642 10.6667 6.31975 10.6667C6.1642 10.6667 6.03642 10.6056 5.93642 10.4833C5.83642 10.3611 5.80864 10.2222 5.85309 10.0667L6.41975 7.83333H3.40309L2.78642 10.3C2.7642 10.3889 2.71698 10.4722 2.64475 10.55C2.57253 10.6278 2.4642 10.6667 2.31975 10.6667ZM3.65309 6.83333H6.66975L7.41975 3.83333H4.40309L3.65309 6.83333Z" fill="#DC0A2D"/>
</svg>
